HIERARCHY
ROOT joint_Root
{
	OFFSET 0.0 0.0 0.0
	CHANNELS 6 Xposition Yposition Zposition Zrotation Xrotation Yrotation 
	JOINT Hips
	{
		OFFSET -0.726466 93.3139 -2.00062
		CHANNELS 6 Xposition Yposition Zposition Zrotation Xrotation Yrotation 
		JOINT Spine
		{
			OFFSET 15.7357 0.0 0.0
			CHANNELS 6 Xposition Yposition Zposition Zrotation Xrotation Yrotation 
			JOINT Chest
			{
				OFFSET 8.98455 -0.406207 0.0
				CHANNELS 6 Xposition Yposition Zposition Zrotation Xrotation Yrotation 
				JOINT Neck
				{
					OFFSET 16.3773 0.0 0.0
					CHANNELS 6 Xposition Yposition Zposition Zrotation Xrotation Yrotation 
					JOINT Head
					{
						OFFSET 6.45672 0.0 0.0
						CHANNELS 6 Xposition Yposition Zposition Zrotation Xrotation Yrotation 
						End Site
						{
							OFFSET 0.0 0.0 0.0
						}
					}
				}
				JOINT Shoulder_L
				{
					OFFSET 12.9942 -0.242716 4.98039
					CHANNELS 6 Xposition Yposition Zposition Zrotation Xrotation Yrotation 
					JOINT UpperArm_L
					{
						OFFSET 5.34809 0.0 0.0
						CHANNELS 6 Xposition Yposition Zposition Zrotation Xrotation Yrotation 
						JOINT LowerArm_L
						{
							OFFSET 24.3286 1.87007e-05 0.0
							CHANNELS 6 Xposition Yposition Zposition Zrotation Xrotation Yrotation 
							JOINT Hand_L
							{
								OFFSET 22.2916 0.0 0.0
								CHANNELS 6 Xposition Yposition Zposition Zrotation Xrotation Yrotation 
								End Site
								{
									OFFSET 0.0 0.0 0.0
								}
							}
						}
					}
				}
				JOINT Shoulder_R
				{
					OFFSET 12.9945 -0.242716 -4.98039
					CHANNELS 6 Xposition Yposition Zposition Zrotation Xrotation Yrotation 
					JOINT UpperArm_R
					{
						OFFSET -5.34813 0.0 0.0
						CHANNELS 6 Xposition Yposition Zposition Zrotation Xrotation Yrotation 
						JOINT LowerArm_R
						{
							OFFSET -24.3289 0.000322201 0.0
							CHANNELS 6 Xposition Yposition Zposition Zrotation Xrotation Yrotation 
							JOINT Hand_R
							{
								OFFSET -22.2915 -0.000108084 0.0
								CHANNELS 6 Xposition Yposition Zposition Zrotation Xrotation Yrotation 
								End Site
								{
									OFFSET 0.0 0.0 0.0
								}
							}
						}
					}
				}
			}
		}
		JOINT UpperLeg_L
		{
			OFFSET -2.19248 -6.46944 0.0
			CHANNELS 6 Xposition Yposition Zposition Zrotation Xrotation Yrotation 
			JOINT LowerLeg_L
			{
				OFFSET 39.0811 0.0 -1.23785e-05
				CHANNELS 6 Xposition Yposition Zposition Zrotation Xrotation Yrotation 
				JOINT Foot_L
				{
					OFFSET 40.9854 0.0 -1.26872e-05
					CHANNELS 6 Xposition Yposition Zposition Zrotation Xrotation Yrotation 
					JOINT Toes_L
					{
						OFFSET 11.7543 0.0 0.0
						CHANNELS 6 Xposition Yposition Zposition Zrotation Xrotation Yrotation 
						End Site
						{
							OFFSET 0.0 0.0 0.0
						}
					}
				}
			}
		}
		JOINT UpperLeg_R
		{
			OFFSET -2.19251 6.46944 0.0
			CHANNELS 6 Xposition Yposition Zposition Zrotation Xrotation Yrotation 
			JOINT LowerLeg_R
			{
				OFFSET -39.0811 -0.00228153 -0.0401928
				CHANNELS 6 Xposition Yposition Zposition Zrotation Xrotation Yrotation 
				JOINT Foot_R
				{
					OFFSET -40.9854 0.0 0.0
					CHANNELS 6 Xposition Yposition Zposition Zrotation Xrotation Yrotation 
					JOINT Toes_R
					{
						OFFSET -11.7543 0.0 0.0
						CHANNELS 6 Xposition Yposition Zposition Zrotation Xrotation Yrotation 
						End Site
						{
							OFFSET 0.0 0.0 0.0
						}
					}
				}
			}
		}
	}
}
MOTION
Frames:	4
Frame Time:	0.0333333
0.000000 0.000000 0.000000 0.000000 0.000000 -0.000000 -0.454319 92.226700 -0.419750 88.047000 -1.135730 4.532620 15.735700 0.000005 -0.000001 80.450700 86.509800 -79.940300 8.984550 -0.406207 -0.000000 -0.876903 -1.196260 1.011370 16.377300 -0.000001 -0.000001 4.317180 -1.756330 0.232067 6.456720 -0.000001 -0.000000 7.154730 -2.013980 -1.065890 12.994200 -0.242716 4.980390 -86.960000 -8.787350 -70.830800 5.348090 -0.000007 -0.000001 -86.377800 -37.555500 -92.372400 24.328600 0.000019 0.000005 3.868710 0.523504 -82.305500 22.291600 -0.000001 0.000005 20.480500 5.602730 -11.506600 12.994500 -0.242716 -4.980390 90.996400 -3.067360 -71.994200 -5.348130 -0.000001 -0.000004 -78.741800 -33.685400 -100.990000 -24.328900 0.000322 -0.000009 11.743600 3.185080 -75.038500 -22.291500 -0.000108 -0.000004 22.653500 5.432060 -4.010010 -2.192480 -6.469440 -0.000000 -175.649000 -6.682150 -1.703980 39.081100 -0.000007 -0.000012 -0.102575 0.241223 23.036700 40.985400 -0.000006 -0.000013 -0.182894 2.643150 -66.979200 11.754300 -0.000000 0.000003 -0.000041 -0.000471 -16.595900 -2.192510 6.469440 -0.000001 179.279000 14.910800 -178.471000 -39.081100 -0.002282 -0.040193 0.000493 0.008081 19.300200 -40.985400 0.000008 0.000006 4.250230 6.316140 -66.747400 -11.754300 -0.000006 -0.000006 -0.006313 -0.073652 -19.570900
0.000000 0.000000 0.000000 0.000000 0.000000 -0.000000 -0.433739 92.233400 -0.430924 88.064200 -1.109560 4.529300 15.735700 0.000005 -0.000001 80.671200 86.508400 -80.157100 8.984550 -0.406207 -0.000000 -0.869748 -1.170460 1.018810 16.377300 -0.000001 -0.000001 4.257320 -1.750530 0.265522 6.456720 -0.000001 -0.000000 7.193120 -2.025280 -1.077080 12.994200 -0.242716 4.980390 -86.962800 -8.770260 -70.812500 5.348090 -0.000007 -0.000001 -86.316500 -37.559600 -92.449200 24.328600 0.000019 0.000005 3.815110 0.524060 -82.190200 22.291600 -0.000001 0.000005 20.432100 5.602770 -11.509500 12.994500 -0.242716 -4.980390 91.001200 -3.078770 -71.975000 -5.348130 -0.000001 -0.000004 -78.473400 -33.859900 -100.958000 -24.328900 0.000322 -0.000009 11.540700 3.161860 -74.886200 -22.291500 -0.000108 -0.000004 22.716800 5.434030 -4.078190 -2.192480 -6.469440 -0.000000 -175.683000 -6.665580 -1.694250 39.081100 -0.000007 -0.000012 -0.102033 0.240525 22.987100 40.985400 -0.000006 -0.000013 -0.162588 2.666090 -66.947000 11.754300 -0.000000 0.000003 -0.000042 -0.000482 -16.596300 -2.192510 6.469440 -0.000001 179.246000 14.934300 -178.479000 -39.081100 -0.002282 -0.040193 0.000171 0.009008 19.286600 -40.985400 0.000008 0.000006 4.279940 6.305060 -66.731200 -11.754300 -0.000006 -0.000006 -0.006233 -0.072935 -19.541600
0.000000 0.000000 0.000000 0.000000 0.000000 -0.000000 -0.426669 92.232400 -0.454748 88.053700 -1.063530 4.528830 15.735700 0.000005 -0.000001 80.746400 86.498700 -80.216200 8.984550 -0.406207 -0.000000 -0.848908 -1.165670 1.051420 16.377300 -0.000001 -0.000001 4.261800 -1.749840 0.349689 6.456720 -0.000001 -0.000000 7.095450 -2.019440 -1.189710 12.994200 -0.242716 4.980390 -86.967000 -8.750510 -70.797400 5.348090 -0.000007 -0.000001 -86.248300 -37.553700 -92.489000 24.328600 0.000019 0.000005 3.922090 0.545019 -82.101200 22.291600 -0.000001 0.000005 20.405500 5.602780 -11.510200 12.994500 -0.242716 -4.980390 91.013200 -3.108530 -71.937400 -5.348130 -0.000001 -0.000004 -78.202800 -33.959400 -100.914000 -24.328900 0.000322 -0.000009 11.378000 3.138000 -74.784800 -22.291500 -0.000108 -0.000004 22.646700 5.435450 -4.127140 -2.192480 -6.469440 -0.000000 -175.673000 -6.655470 -1.726070 39.081100 -0.000007 -0.000012 -0.102424 0.241109 23.016000 40.985400 -0.000006 -0.000013 -0.144173 2.726880 -66.948200 11.754300 -0.000000 0.000003 -0.000038 -0.000447 -16.595000 -2.192510 6.469440 -0.000001 179.259000 14.945300 -178.497000 -39.081100 -0.002282 -0.040193 0.001138 0.006238 19.297300 -40.985400 0.000008 0.000006 4.268840 6.284250 -66.722900 -11.754300 -0.000006 -0.000006 -0.006076 -0.071525 -19.484100
0.000000 0.000000 0.000000 0.000000 0.000000 -0.000000 -0.413457 92.238200 -0.478457 88.072200 -1.039530 4.554630 15.735700 0.000005 -0.000001 80.953000 86.471400 -80.409500 8.984550 -0.406207 -0.000000 -0.790914 -1.150060 1.078530 16.377300 -0.000001 -0.000001 4.162060 -1.708250 0.413139 6.456720 -0.000001 -0.000000 7.077670 -1.984090 -1.291410 12.994200 -0.242716 4.980390 -86.982400 -8.703990 -70.794000 5.348090 -0.000007 -0.000001 -86.085100 -37.581900 -92.406000 24.328600 0.000019 0.000005 3.735980 0.519061 -82.101500 22.291600 -0.000001 0.000005 20.342300 5.603050 -11.526200 12.994500 -0.242716 -4.980390 91.011500 -3.093800 -71.885700 -5.348130 -0.000001 -0.000004 -77.828100 -34.035300 -100.826000 -24.328900 0.000322 -0.000009 11.398500 3.147760 -74.766500 -22.291500 -0.000108 -0.000004 22.558400 5.432170 -4.013820 -2.192480 -6.469440 -0.000000 -175.708000 -6.607950 -1.714260 39.081100 -0.000007 -0.000012 -0.102322 0.241220 22.985900 40.985400 -0.000006 -0.000013 -0.147938 2.669170 -66.907100 11.754300 -0.000000 0.000003 -0.000038 -0.000449 -16.595100 -2.192510 6.469440 -0.000001 179.230000 14.955800 -178.484000 -39.081100 -0.002282 -0.040193 0.001255 0.005907 19.292300 -40.985400 0.000008 0.000006 4.290760 6.278410 -66.707200 -11.754300 -0.000006 -0.000006 -0.006229 -0.072900 -19.540200
